<svg xmlns="http://www.w3.org/2000/svg" width="32" height="31" viewBox="0 0 32 31"><g transform="translate(-0.464 0.365)" opacity="0.33"><ellipse cx="16" cy="15.5" rx="16" ry="15.5" transform="translate(0.464 -0.365)" fill="#fff"/><path d="M21.587,11.526a.975.975,0,0,0-.007,1.373l4.531,4.546H8.845a.97.97,0,0,0,0,1.941H26.11l-4.538,4.546a.982.982,0,0,0,.007,1.373.966.966,0,0,0,1.366-.007L29.1,19.1h0a1.09,1.09,0,0,0,.2-.306.926.926,0,0,0,.075-.373.973.973,0,0,0-.276-.679l-6.151-6.2A.951.951,0,0,0,21.587,11.526Z" transform="translate(-2.972 -2.917)" fill="#d99e30"/></g></svg>