<svg xmlns="http://www.w3.org/2000/svg" width="56" height="43.81" viewBox="0 0 56 43.81"><g transform="translate(-2)"><g transform="translate(0 0)"><text transform="translate(30 40.81)" fill="#fff" font-size="11" font-family="SegoeUI-Light, Segoe UI" font-weight="300"><tspan x="-27.175" y="0">Add to Cart</tspan></text><path d="M9.859,21.005a2.218,2.218,0,1,0,2.218,2.218A2.225,2.225,0,0,0,9.859,21.005ZM3.375,3.6V5.818H5.593l3.993,8.089-1.67,2.717A2.208,2.208,0,0,0,10.03,19.9H23V17.763H10.3a.262.262,0,0,1-.277-.277,1.383,1.383,0,0,1,.118-.277L11.25,15.46h8.263A2.176,2.176,0,0,0,21.454,14.3l3.993-6.868a1.3,1.3,0,0,0,.111-.555,1.066,1.066,0,0,0-1.109-1.054H8.034L6.98,3.6ZM20.78,21.005A2.218,2.218,0,1,0,23,23.224,2.225,2.225,0,0,0,20.78,21.005Z" transform="translate(18.808 -3.6)" fill="#fff"/></g></g></svg>