<svg xmlns="http://www.w3.org/2000/svg" width="33" height="31" viewBox="0 0 33 31"><g transform="translate(0.49 0.365)" opacity="0.33"><ellipse cx="16.5" cy="15.5" rx="16.5" ry="15.5" transform="translate(-0.49 -0.365)" fill="#fff"/><path d="M15.667,11.526a.975.975,0,0,1,.007,1.373l-4.531,4.546H28.409a.97.97,0,0,1,0,1.941H11.144l4.538,4.546a.982.982,0,0,1-.007,1.373.966.966,0,0,1-1.366-.007L8.158,19.1h0a1.09,1.09,0,0,1-.2-.306.926.926,0,0,1-.075-.373.973.973,0,0,1,.276-.679l6.151-6.2A.951.951,0,0,1,15.667,11.526Z" transform="translate(-2.336 -2.917)" fill="#d99e30"/></g></svg>